<svg width="518" height="494" viewBox="0 0 518 494" fill="none" xmlns="http://www.w3.org/2000/svg">
<path d="M224.16 345.83L197.27 434.17L176.61 493.97H0V289.55L74.81 237.29L150.5 290.16L224.16 345.83Z" fill="#E6F1E3"/>
<path d="M39.31 161.37L4.19 191.3L0 194.61V75.6501L5.7 75.4201L23.31 118.08L39.31 161.37Z" fill="#E6F1E3"/>
<path d="M177.15 49.51L159.99 75.5801L141.87 100.99L111.77 92.7202L82.0099 83.3301L80.5799 52.1201L80.3099 20.9001L109.51 9.90015L139.11 0L158.59 24.3801L177.15 49.51Z" fill="#E6F1E3"/>
<path d="M477.38 103.54L466.38 120.3L454.73 136.63L435.38 131.32L416.25 125.32L415.32 105.32L415.15 85.26L433.92 78.1802L452.92 71.8201L465.44 87.4902L477.38 103.54Z" fill="#E6F1E3"/>
<path d="M517.38 248.48L500.21 274.55L482.09 299.96L452 291.69L422.24 282.3L420.8 251.12L420.53 219.9L449.74 208.9L479.33 199L498.82 223.38L517.38 248.48Z" fill="#E6F1E3"/>
<path d="M354.11 154.17L353.76 214.43L351.17 274.64L293.76 292.94L235.76 309.07L200.63 260.07L167.35 209.84L203.04 161.29L240.48 114.12L297.67 133.07L354.11 154.17Z" fill="#E6F1E3"/>
<path d="M516.39 493.97H264.88L276.52 445.72L298.74 366.71L380.54 360.37L462.53 357.09L493.84 432.96L516.39 493.97Z" fill="#E6F1E3"/>
</svg>
